<svg xmlns="http://www.w3.org/2000/svg" viewBox="0 0 256 170" preserveAspectRatio="xMidYMid meet">
<rect width="100%" height="100%" fill="white"/>
<defs><linearGradient id="g3" gradientUnits="userSpaceOnUse" x1="100.86" y1="30.15" x2="155.14" y2="30.15"><stop offset="0.0%" stop-color="#979d99"/><stop offset="3.8%" stop-color="#9ea4a0"/><stop offset="14.6%" stop-color="#9aa09c"/><stop offset="30.9%" stop-color="#8b918d"/><stop offset="50.0%" stop-color="#757976"/><stop offset="69.1%" stop-color="#595c5a"/><stop offset="85.4%" stop-color="#555956"/><stop offset="96.2%" stop-color="#555956"/><stop offset="100.0%" stop-color="#555956"/></linearGradient></defs>
<g stroke-linejoin="round">
<path d="M 191.98 37.99 L 128.00 69.98 L 128.00 164.00 L 191.98 132.01 L 191.98 37.99 Z" fill="#5d615e" fill-rule="evenodd" stroke="#5d615e" stroke-width="0.8"/>
<path d="M 124.38 7.89 L 124.35 7.94 L 124.32 7.99 L 124.30 8.04 L 124.28 8.10 L 124.27 8.16 L 124.27 8.21 L 124.27 8.27 L 124.27 8.33 L 124.28 8.39 L 124.30 8.44 L 124.32 8.50 L 124.35 8.55 L 124.38 8.60 L 124.42 8.64 L 124.46 8.68 L 124.51 8.72 L 124.56 8.75 L 124.61 8.78 L 124.66 8.80 A 27.14 13.57 180.00 0 1 124.88 8.84 A 27.14 13.57 180.00 0 0 124.06 8.90 A 27.14 13.57 180.00 0 1 131.50 8.86 A 27.14 13.57 180.00 0 0 131.12 8.84 A 27.14 13.57 180.00 0 1 131.34 8.80 L 131.39 8.78 L 131.44 8.75 L 131.49 8.72 L 131.54 8.68 L 131.58 8.64 L 131.62 8.60 L 131.65 8.55 L 131.68 8.50 L 131.70 8.44 L 131.72 8.39 L 131.73 8.33 L 131.74 8.27 L 131.74 8.22 L 131.73 8.16 L 131.72 8.10 L 131.70 8.04 L 131.68 7.99 L 131.66 7.94 L 131.62 7.89 L 131.59 7.84 L 131.55 7.80 L 131.50 7.76 L 131.46 7.73 L 131.40 7.70 L 128.00 6.00 L 124.60 7.70 L 124.55 7.73 L 124.50 7.76 L 124.45 7.80 L 124.41 7.84 L 124.38 7.89 Z M 100.86 37.99 L 100.86 26.47 L 100.86 22.32 A 27.14 13.57 180.00 0 0 100.96 23.46 A 27.14 13.57 180.00 0 1 101.61 19.20 L 64.02 37.99 L 128.00 69.98 L 191.98 37.99 L 154.41 19.21 A 27.14 13.57 180.00 0 1 155.10 22.89 L 155.14 22.32 L 155.14 26.44 L 155.14 37.99 A 27.14 13.57 180.00 0 1 100.86 37.99 Z" fill="#cad1cc" fill-rule="evenodd" stroke="#cad1cc" stroke-width="0.8"/>
<path d="M 64.02 132.01 L 128.00 164.00 L 128.00 69.98 L 64.02 37.99 L 64.02 132.01 Z" fill="#848985" fill-rule="evenodd" stroke="#848985" stroke-width="0.8"/>
<path d="M 155.14 37.99 L 155.14 26.44 L 155.14 26.38 L 155.13 26.32 L 155.12 26.26 L 155.10 26.21 L 155.07 26.16 L 155.04 26.11 L 155.01 26.06 L 154.97 26.02 L 154.93 25.98 L 154.88 25.94 L 154.83 25.91 L 154.78 25.89 L 154.73 25.86 L 154.67 25.85 L 154.61 25.84 L 154.56 25.84 L 154.50 25.84 L 154.44 25.84 L 154.38 25.86 L 154.33 25.88 L 154.27 25.90 L 154.22 25.93 L 154.18 25.96 A 27.14 13.57 180.00 0 1 101.85 26.02 L 101.80 25.98 L 101.75 25.95 L 101.70 25.92 L 101.64 25.90 L 101.58 25.89 L 101.53 25.88 L 101.47 25.87 L 101.41 25.87 L 101.35 25.88 L 101.29 25.90 L 101.23 25.91 L 101.18 25.94 L 101.13 25.97 L 101.08 26.00 L 101.04 26.04 L 101.00 26.09 L 100.96 26.14 L 100.93 26.19 L 100.90 26.24 L 100.88 26.30 L 100.87 26.35 L 100.86 26.41 L 100.86 26.47 L 100.86 37.99 A 27.14 13.57 180.00 0 0 155.14 37.99 Z" fill="url(#g3)" fill-rule="evenodd" stroke="url(#g3)" stroke-width="0.8"/>
<path d="M 110.81 32.82 A 27.14 13.57 180.00 0 0 144.12 11.40 A 27.14 13.57 180.00 0 0 110.81 32.82 Z" fill="#cad1cc" fill-rule="evenodd" stroke="#cad1cc" stroke-width="0.8"/>
</g>
<defs><clipPath id="sclip"><path d="M 100.83 18.47 L 63.02 37.37 L 63.02 132.63 L 128.00 165.12 L 192.98 132.63 L 192.98 37.37 L 155.16 18.46 L 154.89 18.01 L 154.67 17.61 L 154.62 17.54 L 154.58 17.46 L 154.50 17.35 L 154.44 17.26 L 154.22 16.99 L 154.05 16.77 L 153.78 16.41 L 153.76 16.38 L 153.74 16.35 L 153.49 16.09 L 153.33 15.90 L 153.09 15.66 L 152.80 15.37 L 152.78 15.33 L 152.72 15.28 L 152.71 15.27 L 152.67 15.24 L 152.60 15.18 L 152.25 14.88 L 151.98 14.62 L 151.79 14.47 L 151.56 14.28 L 151.51 14.24 L 151.46 14.20 L 151.03 13.89 L 150.69 13.65 L 150.40 13.43 L 150.33 13.38 L 150.25 13.33 L 150.14 13.26 L 150.05 13.20 L 149.50 12.87 L 148.81 12.45 L 148.70 12.39 L 148.61 12.34 L 148.56 12.31 L 148.48 12.26 L 147.91 11.98 L 147.24 11.63 L 146.97 11.51 L 146.76 11.41 L 146.70 11.38 L 146.63 11.34 L 146.22 11.18 L 145.54 10.88 L 145.22 10.76 L 144.92 10.63 L 144.66 10.54 L 144.47 10.46 L 144.16 10.36 L 143.75 10.20 L 143.32 10.07 L 142.96 9.94 L 142.50 9.81 L 142.15 9.69 L 142.00 9.65 L 141.85 9.60 L 141.35 9.47 L 140.89 9.34 L 140.39 9.22 L 139.87 9.08 L 139.78 9.06 L 139.70 9.04 L 139.26 8.95 L 139.25 8.95 L 138.73 8.83 L 138.28 8.75 L 137.81 8.64 L 137.44 8.58 L 137.14 8.52 L 136.83 8.48 L 136.49 8.41 L 136.10 8.36 L 135.70 8.29 L 134.97 8.20 L 134.52 8.14 L 128.00 4.88 L 121.47 8.15 L 121.42 8.15 L 120.84 8.22 L 120.60 8.26 L 120.31 8.29 L 120.20 8.31 L 120.08 8.32 L 119.33 8.45 L 118.41 8.61 L 118.22 8.64 L 118.18 8.65 L 118.17 8.65 L 118.00 8.69 L 117.82 8.72 L 117.12 8.87 L 116.13 9.08 L 115.90 9.14 L 115.81 9.17 L 115.68 9.19 L 115.66 9.20 L 115.64 9.20 L 114.96 9.39 L 114.15 9.60 L 113.85 9.70 L 113.55 9.78 L 113.40 9.83 L 113.26 9.87 L 112.86 10.01 L 112.25 10.20 L 111.89 10.34 L 111.56 10.45 L 111.25 10.57 L 110.98 10.67 L 110.75 10.77 L 110.45 10.88 L 110.06 11.05 L 109.68 11.21 L 109.27 11.40 L 109.16 11.45 L 108.87 11.58 L 108.82 11.60 L 108.76 11.63 L 108.34 11.85 L 107.94 12.04 L 107.58 12.24 L 107.19 12.45 L 107.05 12.53 L 106.92 12.60 L 106.67 12.76 L 106.33 12.96 L 106.06 13.14 L 105.75 13.33 L 105.43 13.56 L 105.18 13.72 L 105.05 13.83 L 104.87 13.95 L 104.67 14.11 L 104.44 14.28 L 103.97 14.69 L 103.97 14.69 L 103.95 14.70 L 103.66 14.93 L 103.63 14.96 L 103.58 15.00 L 103.44 15.14 L 103.27 15.29 L 102.81 15.77 L 102.47 16.12 L 102.42 16.18 L 102.36 16.24 L 102.32 16.29 L 102.27 16.35 L 101.84 16.91 L 101.53 17.31 L 101.48 17.38 L 101.42 17.46 L 101.37 17.54 L 101.32 17.61 L 101.17 17.91 L 101.02 18.15 Z" clip-rule="evenodd"/></clipPath></defs>
<g stroke="black" fill="none" stroke-linecap="round" clip-path="url(#sclip)">
<path d="M 134.22 9.11 L 128.00 6.00 L 121.76 9.12 A 27.14 13.57 180.00 0 0 101.59 19.20 L 64.02 37.99 L 64.02 132.01 L 128.00 164.00 L 191.98 132.01 L 191.98 37.99 L 154.41 19.21 A 27.14 13.57 180.00 0 0 134.22 9.11 Z" stroke-width="2.00" stroke-linejoin="miter" stroke-miterlimit="5"/>
<line x1="155.14" y1="22.32" x2="155.14" y2="37.99" stroke-width="2.00"/>
<line x1="100.86" y1="22.32" x2="100.86" y2="37.99" stroke-width="2.00"/>
<line x1="128.00" y1="6.00" x2="134.15" y2="9.07" stroke-width="2.00"/>
<line x1="154.54" y1="19.27" x2="191.98" y2="37.99" stroke-width="2.00"/>
<line x1="128.00" y1="69.98" x2="191.98" y2="37.99" stroke-width="2.00"/>
<line x1="64.02" y1="37.99" x2="128.00" y2="69.98" stroke-width="2.00"/>
<line x1="64.02" y1="37.99" x2="101.46" y2="19.27" stroke-width="2.00"/>
<line x1="121.85" y1="9.07" x2="128.00" y2="6.00" stroke-width="2.00"/>
<line x1="128.00" y1="164.00" x2="191.98" y2="132.01" stroke-width="2.00"/>
<line x1="64.02" y1="132.01" x2="128.00" y2="164.00" stroke-width="2.00"/>
<line x1="191.98" y1="37.99" x2="191.98" y2="132.01" stroke-width="2.00"/>
<line x1="64.02" y1="37.99" x2="64.02" y2="132.01" stroke-width="2.00"/>
<line x1="128.00" y1="69.98" x2="128.00" y2="164.00" stroke-width="2.00"/>
<path d="M 155.14 37.99 A 27.14 13.57 180.00 0 1 100.86 37.99" stroke-width="2.00"/>
<path d="M 108.81 31.91 A 27.14 13.57 180.00 0 0 147.19 12.72 A 27.14 13.57 180.00 0 0 108.81 31.91" stroke-width="2.00"/>
</g>
</svg>