<svg xmlns="http://www.w3.org/2000/svg" viewBox="0 0 256 170" preserveAspectRatio="xMidYMid meet">
<rect width="100%" height="100%" fill="white"/>
<defs><linearGradient id="g1" gradientUnits="userSpaceOnUse" x1="102.12" y1="32.09" x2="153.88" y2="32.09"><stop offset="0.0%" stop-color="#979d99"/><stop offset="3.8%" stop-color="#9ea4a0"/><stop offset="14.6%" stop-color="#9aa09c"/><stop offset="30.9%" stop-color="#8b918d"/><stop offset="50.0%" stop-color="#757976"/><stop offset="69.1%" stop-color="#595c5a"/><stop offset="85.4%" stop-color="#555956"/><stop offset="96.2%" stop-color="#555956"/><stop offset="100.0%" stop-color="#555956"/></linearGradient><linearGradient id="g3" gradientUnits="userSpaceOnUse" x1="163.12" y1="62.59" x2="214.88" y2="62.59"><stop offset="0.0%" stop-color="#979d99"/><stop offset="3.8%" stop-color="#9ea4a0"/><stop offset="14.6%" stop-color="#9aa09c"/><stop offset="30.9%" stop-color="#8b918d"/><stop offset="50.0%" stop-color="#757976"/><stop offset="69.1%" stop-color="#595c5a"/><stop offset="85.4%" stop-color="#555956"/><stop offset="96.2%" stop-color="#555956"/><stop offset="100.0%" stop-color="#555956"/></linearGradient><linearGradient id="g5" gradientUnits="userSpaceOnUse" x1="41.12" y1="62.59" x2="92.88" y2="62.59"><stop offset="0.0%" stop-color="#979d99"/><stop offset="3.8%" stop-color="#9ea4a0"/><stop offset="14.6%" stop-color="#9aa09c"/><stop offset="30.9%" stop-color="#8b918d"/><stop offset="50.0%" stop-color="#757976"/><stop offset="69.1%" stop-color="#595c5a"/><stop offset="85.4%" stop-color="#555956"/><stop offset="96.2%" stop-color="#555956"/><stop offset="100.0%" stop-color="#555956"/></linearGradient><linearGradient id="g9" gradientUnits="userSpaceOnUse" x1="102.12" y1="93.09" x2="153.88" y2="93.09"><stop offset="0.0%" stop-color="#979d99"/><stop offset="3.8%" stop-color="#9ea4a0"/><stop offset="14.6%" stop-color="#9aa09c"/><stop offset="30.9%" stop-color="#8b918d"/><stop offset="50.0%" stop-color="#757976"/><stop offset="69.1%" stop-color="#595c5a"/><stop offset="85.4%" stop-color="#555956"/><stop offset="96.2%" stop-color="#555956"/><stop offset="100.0%" stop-color="#555956"/></linearGradient></defs>
<g stroke-linejoin="round">
<path d="M 124.55 11.25 L 124.56 11.31 L 124.58 11.37 L 124.60 11.42 L 124.62 11.47 L 124.66 11.52 L 124.69 11.56 L 124.74 11.61 L 124.78 11.64 L 124.83 11.67 L 124.88 11.70 L 124.94 11.72 A 25.88 12.94 180.00 0 1 125.15 11.76 A 25.88 12.94 180.00 0 0 124.65 11.79 A 25.88 12.94 180.00 0 1 131.73 11.82 A 25.88 12.94 180.00 0 0 130.84 11.76 A 25.88 12.94 180.00 0 1 131.07 11.72 L 131.12 11.70 L 131.17 11.67 L 131.22 11.64 L 131.26 11.60 L 131.31 11.56 L 131.34 11.52 L 131.38 11.47 L 131.40 11.42 L 131.43 11.37 L 131.44 11.31 L 131.45 11.25 L 131.46 11.19 L 131.46 11.14 L 131.46 11.08 L 131.44 11.02 L 131.43 10.96 L 131.41 10.91 L 131.38 10.86 L 131.35 10.81 L 131.31 10.77 L 131.27 10.72 L 131.23 10.69 L 131.18 10.65 L 131.13 10.62 L 128.00 9.06 L 124.87 10.62 L 124.82 10.65 L 124.77 10.69 L 124.73 10.72 L 124.69 10.77 L 124.65 10.81 L 124.62 10.86 L 124.59 10.91 L 124.57 10.96 L 124.56 11.02 L 124.55 11.08 L 124.54 11.14 L 124.54 11.20 L 124.55 11.25 Z M 102.12 39.56 L 102.12 28.65 L 102.12 24.62 L 102.16 25.15 A 25.88 12.94 180.00 0 1 102.82 21.65 L 63.87 41.12 L 63.82 41.15 L 63.77 41.19 L 63.73 41.22 L 63.69 41.27 L 63.65 41.31 L 63.62 41.36 L 63.59 41.41 L 63.57 41.47 L 63.56 41.52 L 63.55 41.58 L 63.54 41.64 L 63.54 41.70 L 63.55 41.75 L 63.56 41.81 L 63.58 41.87 L 63.60 41.92 L 63.63 41.97 L 63.66 42.02 L 63.70 42.06 L 63.74 42.10 L 63.78 42.14 L 63.83 42.17 L 63.88 42.20 L 63.94 42.22 A 25.88 12.94 -180.00 0 1 64.15 42.26 A 25.88 12.94 -180.00 0 0 63.65 42.29 A 25.88 12.94 -180.00 0 1 92.78 56.20 A 25.88 12.94 -180.00 0 0 92.88 55.12 L 92.88 59.17 L 92.88 70.06 A 25.88 12.94 180.00 0 1 65.96 82.99 A 25.88 12.94 180.00 0 1 41.12 70.06 L 41.12 59.15 L 41.12 55.12 L 41.16 55.65 A 25.88 12.94 -180.00 0 1 41.82 52.15 L 6.00 70.06 L 128.00 131.06 L 250.00 70.06 L 214.16 52.14 A 25.88 12.94 180.00 0 1 214.78 56.20 A 25.88 12.94 180.00 0 0 214.88 55.12 L 214.88 59.17 L 214.88 70.06 A 25.88 12.94 180.00 0 1 187.96 82.99 A 25.88 12.94 180.00 0 1 163.12 70.06 L 163.12 59.15 L 163.12 55.12 L 163.16 55.65 A 25.88 12.94 180.00 0 1 192.73 42.32 A 25.88 12.94 180.00 0 0 191.84 42.26 A 25.88 12.94 180.00 0 1 192.07 42.22 L 192.12 42.20 L 192.17 42.17 L 192.22 42.14 L 192.26 42.10 L 192.31 42.06 L 192.34 42.02 L 192.38 41.97 L 192.40 41.92 L 192.43 41.87 L 192.44 41.81 L 192.45 41.75 L 192.46 41.69 L 192.46 41.64 L 192.46 41.58 L 192.44 41.52 L 192.43 41.47 L 192.41 41.41 L 192.38 41.36 L 192.35 41.31 L 192.31 41.27 L 192.27 41.22 L 192.23 41.19 L 192.18 41.15 L 192.13 41.12 L 153.16 21.64 A 25.88 12.94 180.00 0 1 153.78 25.70 A 25.88 12.94 180.00 0 0 153.88 24.62 L 153.88 28.67 L 153.88 39.56 A 25.88 12.94 180.00 0 1 126.96 52.49 A 25.88 12.94 180.00 0 1 102.12 39.56 Z M 102.12 100.56 L 102.12 89.65 L 102.12 85.62 L 102.16 86.15 L 102.14 85.33 L 102.14 85.13 A 25.88 12.94 180.00 0 1 153.85 85.21 A 25.88 12.94 180.00 0 1 153.87 85.53 A 25.88 12.94 180.00 0 1 153.78 86.70 A 25.88 12.94 180.00 0 0 153.88 85.62 L 153.88 89.67 L 153.88 100.56 A 25.88 12.94 180.00 0 1 126.96 113.49 A 25.88 12.94 180.00 0 1 102.12 100.56 Z" fill="#cad1cc" fill-rule="evenodd" stroke="#cad1cc" stroke-width="0.8"/>
<path d="M 153.88 39.56 L 153.88 28.67 L 153.88 28.61 L 153.87 28.55 L 153.85 28.50 L 153.84 28.44 L 153.81 28.39 L 153.78 28.34 L 153.75 28.29 L 153.71 28.25 L 153.66 28.21 L 153.62 28.17 L 153.57 28.14 L 153.51 28.12 L 153.46 28.10 L 153.40 28.08 L 153.35 28.07 L 153.29 28.07 L 153.23 28.07 L 153.17 28.08 L 153.12 28.09 L 153.06 28.11 L 153.01 28.14 L 152.96 28.16 L 152.91 28.20 A 25.88 12.94 180.00 0 1 103.09 28.17 L 103.04 28.14 L 102.99 28.11 L 102.94 28.09 L 102.88 28.07 L 102.82 28.06 L 102.77 28.05 L 102.71 28.05 L 102.65 28.05 L 102.59 28.06 L 102.54 28.08 L 102.48 28.10 L 102.43 28.12 L 102.38 28.15 L 102.33 28.19 L 102.29 28.23 L 102.25 28.27 L 102.22 28.32 L 102.19 28.37 L 102.17 28.42 L 102.14 28.48 L 102.13 28.53 L 102.12 28.59 L 102.12 28.65 L 102.12 39.56 A 25.88 12.94 180.00 0 0 129.04 52.49 A 25.88 12.94 180.00 0 0 153.88 39.56 Z" fill="url(#g1)" fill-rule="evenodd" stroke="url(#g1)" stroke-width="0.8"/>
<path d="M 149.56 31.77 A 25.88 12.94 180.00 0 0 105.75 18.01 A 25.88 12.94 180.00 0 0 149.56 31.77 Z" fill="#cad1cc" fill-rule="evenodd" stroke="#cad1cc" stroke-width="0.8"/>
<path d="M 214.88 70.06 L 214.88 59.17 L 214.88 59.11 L 214.87 59.05 L 214.85 59.00 L 214.84 58.94 L 214.81 58.89 L 214.78 58.84 L 214.75 58.79 L 214.71 58.75 L 214.66 58.71 L 214.62 58.67 L 214.57 58.64 L 214.51 58.62 L 214.46 58.60 L 214.40 58.58 L 214.35 58.57 L 214.29 58.57 L 214.23 58.57 L 214.17 58.58 L 214.12 58.59 L 214.06 58.61 L 214.01 58.64 L 213.96 58.66 L 213.91 58.70 A 25.88 12.94 180.00 0 1 164.09 58.67 L 164.04 58.64 L 163.99 58.61 L 163.94 58.59 L 163.88 58.57 L 163.82 58.56 L 163.77 58.55 L 163.71 58.55 L 163.65 58.55 L 163.59 58.56 L 163.54 58.58 L 163.48 58.60 L 163.43 58.62 L 163.38 58.65 L 163.33 58.69 L 163.29 58.73 L 163.25 58.77 L 163.22 58.82 L 163.19 58.87 L 163.16 58.92 L 163.15 58.98 L 163.13 59.03 L 163.12 59.09 L 163.12 59.15 L 163.12 70.06 A 25.88 12.94 180.00 0 0 190.04 82.99 A 25.88 12.94 180.00 0 0 214.88 70.06 Z" fill="url(#g3)" fill-rule="evenodd" stroke="url(#g3)" stroke-width="0.8"/>
<path d="M 210.56 62.27 A 25.88 12.94 180.00 0 0 166.75 48.51 A 25.88 12.94 180.00 0 0 210.56 62.27 Z" fill="#cad1cc" fill-rule="evenodd" stroke="#cad1cc" stroke-width="0.8"/>
<path d="M 92.88 70.06 L 92.88 59.17 L 92.88 59.11 L 92.87 59.05 L 92.86 59.00 L 92.83 58.94 L 92.81 58.89 L 92.78 58.84 L 92.75 58.79 L 92.71 58.75 L 92.66 58.71 L 92.62 58.67 L 92.57 58.64 L 92.52 58.62 L 92.46 58.60 L 92.40 58.58 L 92.35 58.57 L 92.29 58.57 L 92.23 58.57 L 92.17 58.58 L 92.11 58.59 L 92.06 58.61 L 92.01 58.64 L 91.96 58.66 L 91.91 58.70 A 25.88 12.94 -180.00 0 1 42.09 58.67 L 42.04 58.64 L 41.99 58.61 L 41.94 58.59 L 41.88 58.57 L 41.82 58.56 L 41.77 58.55 L 41.71 58.55 L 41.65 58.55 L 41.59 58.56 L 41.54 58.58 L 41.48 58.60 L 41.43 58.62 L 41.38 58.65 L 41.33 58.69 L 41.29 58.73 L 41.25 58.77 L 41.22 58.82 L 41.19 58.87 L 41.16 58.92 L 41.15 58.98 L 41.13 59.03 L 41.12 59.09 L 41.12 59.15 L 41.12 70.06 A 25.88 12.94 180.00 0 0 68.04 82.99 A 25.88 12.94 180.00 0 0 92.88 70.06 Z" fill="url(#g5)" fill-rule="evenodd" stroke="url(#g5)" stroke-width="0.8"/>
<path d="M 88.56 62.27 A 25.88 12.94 -180.00 0 0 44.75 48.51 A 25.88 12.94 -180.00 0 0 88.56 62.27 Z" fill="#cad1cc" fill-rule="evenodd" stroke="#cad1cc" stroke-width="0.8"/>
<path d="M 250.00 70.06 L 128.00 131.06 L 128.00 160.94 L 250.00 99.94 L 250.00 70.06 Z" fill="#5d615e" fill-rule="evenodd" stroke="#5d615e" stroke-width="0.8"/>
<path d="M 6.00 70.06 L 6.00 99.94 L 128.00 160.94 L 128.00 131.06 L 6.00 70.06 Z" fill="#848985" fill-rule="evenodd" stroke="#848985" stroke-width="0.8"/>
<path d="M 153.88 100.56 L 153.88 89.67 L 153.88 89.61 L 153.87 89.55 L 153.85 89.50 L 153.84 89.44 L 153.81 89.39 L 153.78 89.34 L 153.75 89.29 L 153.71 89.25 L 153.66 89.21 L 153.62 89.17 L 153.57 89.14 L 153.51 89.12 L 153.46 89.10 L 153.40 89.08 L 153.35 89.07 L 153.29 89.07 L 153.23 89.07 L 153.17 89.08 L 153.12 89.09 L 153.06 89.11 L 153.01 89.14 L 152.96 89.17 L 152.91 89.20 A 25.88 12.94 180.00 0 1 103.09 89.17 L 103.04 89.14 L 102.99 89.11 L 102.94 89.09 L 102.88 89.07 L 102.82 89.06 L 102.77 89.05 L 102.71 89.05 L 102.65 89.05 L 102.59 89.06 L 102.54 89.08 L 102.48 89.10 L 102.43 89.12 L 102.38 89.15 L 102.33 89.19 L 102.29 89.23 L 102.25 89.27 L 102.22 89.32 L 102.19 89.37 L 102.16 89.42 L 102.14 89.48 L 102.13 89.53 L 102.12 89.59 L 102.12 89.65 L 102.12 100.56 A 25.88 12.94 180.00 0 0 129.04 113.49 A 25.88 12.94 180.00 0 0 153.88 100.56 Z" fill="url(#g9)" fill-rule="evenodd" stroke="url(#g9)" stroke-width="0.8"/>
<path d="M 148.03 93.81 A 25.88 12.94 180.00 0 0 107.18 77.93 A 25.88 12.94 180.00 0 0 148.03 93.81 Z" fill="#cad1cc" fill-rule="evenodd" stroke="#cad1cc" stroke-width="0.8"/>
</g>
<defs><clipPath id="sclip"><path d="M 41.07 51.40 L 5.00 69.44 L 5.00 100.56 L 128.00 162.06 L 251.00 100.56 L 251.00 69.44 L 214.93 51.41 L 214.75 51.10 L 214.63 50.89 L 214.48 50.61 L 214.42 50.54 L 214.38 50.46 L 214.33 50.39 L 214.28 50.31 L 213.98 49.93 L 213.57 49.40 L 213.52 49.34 L 213.48 49.28 L 213.43 49.23 L 213.38 49.18 L 213.04 48.84 L 212.61 48.38 L 212.45 48.24 L 212.31 48.10 L 212.27 48.07 L 212.25 48.05 L 211.94 47.80 L 211.50 47.42 L 211.27 47.25 L 211.08 47.09 L 210.91 46.98 L 210.78 46.88 L 210.54 46.72 L 210.25 46.51 L 209.94 46.32 L 209.69 46.15 L 209.37 45.97 L 209.12 45.81 L 209.01 45.76 L 208.86 45.66 L 208.48 45.46 L 208.15 45.28 L 207.77 45.09 L 207.36 44.88 L 207.31 44.86 L 207.27 44.84 L 206.99 44.72 L 206.89 44.67 L 206.48 44.48 L 206.13 44.34 L 205.75 44.17 L 205.46 44.06 L 205.25 43.97 L 204.98 43.88 L 204.69 43.76 L 204.37 43.65 L 204.03 43.52 L 203.44 43.34 L 203.07 43.20 L 202.94 43.17 L 202.79 43.12 L 202.51 43.04 L 202.22 42.95 L 201.43 42.74 L 200.80 42.57 L 200.75 42.55 L 200.69 42.54 L 200.56 42.52 L 200.33 42.45 L 199.41 42.26 L 198.71 42.10 L 198.54 42.07 L 198.41 42.05 L 198.40 42.04 L 198.37 42.03 L 198.36 42.03 L 198.33 42.03 L 198.30 42.02 L 197.24 41.85 L 196.56 41.73 L 196.45 41.71 L 196.34 41.70 L 196.05 41.66 L 195.83 41.63 L 195.29 41.57 L 195.24 41.56 L 153.93 20.91 L 153.75 20.60 L 153.63 20.39 L 153.48 20.11 L 153.42 20.04 L 153.38 19.96 L 153.33 19.89 L 153.28 19.81 L 152.98 19.43 L 152.57 18.90 L 152.52 18.84 L 152.48 18.78 L 152.43 18.73 L 152.38 18.68 L 152.04 18.34 L 151.61 17.88 L 151.45 17.74 L 151.31 17.60 L 151.27 17.57 L 151.25 17.55 L 150.94 17.30 L 150.50 16.92 L 150.27 16.75 L 150.08 16.59 L 149.91 16.48 L 149.78 16.38 L 149.54 16.22 L 149.25 16.01 L 148.94 15.82 L 148.69 15.65 L 148.37 15.47 L 148.12 15.31 L 148.01 15.26 L 147.86 15.16 L 147.48 14.96 L 147.15 14.78 L 146.77 14.59 L 146.36 14.38 L 146.31 14.36 L 146.27 14.34 L 145.99 14.22 L 145.89 14.17 L 145.48 13.98 L 145.13 13.84 L 144.75 13.67 L 144.46 13.56 L 144.25 13.47 L 143.98 13.38 L 143.69 13.26 L 143.37 13.15 L 143.03 13.02 L 142.44 12.84 L 142.07 12.71 L 141.94 12.67 L 141.79 12.62 L 141.51 12.54 L 141.22 12.45 L 140.43 12.24 L 139.80 12.07 L 139.75 12.05 L 139.69 12.04 L 139.56 12.02 L 139.33 11.95 L 138.41 11.76 L 137.71 11.60 L 137.54 11.57 L 137.41 11.54 L 137.40 11.54 L 137.37 11.54 L 137.36 11.53 L 137.33 11.53 L 137.30 11.52 L 136.24 11.35 L 135.56 11.23 L 135.45 11.21 L 135.34 11.20 L 135.05 11.16 L 134.83 11.13 L 134.29 11.07 L 134.24 11.06 L 128.00 7.94 L 121.79 11.05 L 121.33 11.11 L 120.66 11.20 L 120.26 11.26 L 119.90 11.31 L 119.58 11.37 L 119.28 11.42 L 119.00 11.47 L 118.64 11.53 L 118.18 11.63 L 117.76 11.71 L 117.26 11.83 L 117.21 11.84 L 116.84 11.91 L 116.77 11.93 L 116.67 11.95 L 116.18 12.08 L 115.70 12.20 L 115.26 12.32 L 114.78 12.45 L 114.64 12.49 L 114.50 12.53 L 114.15 12.65 L 113.72 12.77 L 113.38 12.89 L 112.97 13.02 L 112.58 13.17 L 112.29 13.27 L 112.10 13.34 L 111.85 13.43 L 111.56 13.55 L 111.25 13.67 L 110.63 13.94 L 110.22 14.11 L 110.17 14.14 L 110.09 14.17 L 109.87 14.28 L 109.64 14.38 L 108.97 14.73 L 108.45 14.99 L 108.38 15.03 L 108.33 15.06 L 108.25 15.10 L 108.14 15.16 L 107.45 15.58 L 106.95 15.88 L 106.85 15.95 L 106.75 16.01 L 106.69 16.06 L 106.61 16.10 L 106.34 16.31 L 106.03 16.54 L 105.59 16.85 L 105.56 16.88 L 105.51 16.91 L 105.29 17.10 L 105.10 17.24 L 104.84 17.49 L 104.58 17.72 L 104.41 17.86 L 104.37 17.91 L 104.05 18.24 L 103.81 18.47 L 103.66 18.65 L 103.43 18.89 L 103.40 18.93 L 103.37 18.96 L 103.12 19.30 L 102.99 19.48 L 102.75 19.77 L 102.69 19.87 L 102.62 19.96 L 102.58 20.03 L 102.53 20.10 L 102.30 20.51 L 102.07 20.90 L 60.79 41.55 L 60.33 41.61 L 59.66 41.70 L 59.26 41.76 L 58.90 41.81 L 58.58 41.87 L 58.28 41.92 L 58.00 41.97 L 57.64 42.03 L 57.18 42.13 L 56.76 42.21 L 56.26 42.33 L 56.21 42.34 L 55.84 42.41 L 55.77 42.43 L 55.67 42.45 L 55.18 42.58 L 54.70 42.70 L 54.26 42.82 L 53.78 42.95 L 53.63 42.99 L 53.50 43.03 L 53.15 43.15 L 52.72 43.27 L 52.38 43.39 L 51.97 43.52 L 51.58 43.67 L 51.29 43.77 L 51.10 43.84 L 50.85 43.93 L 50.56 44.05 L 50.25 44.17 L 49.63 44.44 L 49.22 44.61 L 49.17 44.64 L 49.09 44.67 L 48.87 44.78 L 48.64 44.88 L 47.97 45.23 L 47.45 45.49 L 47.38 45.53 L 47.33 45.56 L 47.26 45.60 L 47.13 45.66 L 46.45 46.08 L 45.95 46.38 L 45.85 46.45 L 45.76 46.51 L 45.69 46.56 L 45.61 46.60 L 45.34 46.81 L 45.03 47.04 L 44.59 47.35 L 44.56 47.38 L 44.51 47.41 L 44.29 47.60 L 44.10 47.74 L 43.84 47.99 L 43.58 48.22 L 43.41 48.36 L 43.37 48.41 L 43.05 48.74 L 42.81 48.97 L 42.66 49.15 L 42.43 49.39 L 42.40 49.43 L 42.37 49.46 L 42.12 49.80 L 41.99 49.98 L 41.75 50.27 L 41.69 50.37 L 41.62 50.46 L 41.58 50.53 L 41.52 50.60 L 41.30 51.01 Z" clip-rule="evenodd"/></clipPath></defs>
<g stroke="black" fill="none" stroke-linecap="round" clip-path="url(#sclip)">
<path d="M 41.82 52.15 L 6.00 70.06 L 6.00 99.94 L 128.00 160.94 L 250.00 99.94 L 250.00 70.06 L 214.18 52.15 A 25.88 12.94 180.00 0 0 194.95 42.53 L 153.18 21.65 A 25.88 12.94 180.00 0 0 133.95 12.03 L 128.00 9.06 L 122.07 12.02 A 25.88 12.94 180.00 0 0 102.82 21.65 L 61.07 42.52 A 25.88 12.94 -180.00 0 0 41.82 52.15 Z" stroke-width="2.00" stroke-linejoin="miter" stroke-miterlimit="5"/>
<line x1="214.88" y1="55.12" x2="214.88" y2="70.06" stroke-width="2.00"/>
<line x1="163.12" y1="55.12" x2="163.12" y2="70.06" stroke-width="2.00"/>
<line x1="153.88" y1="24.62" x2="153.88" y2="39.56" stroke-width="2.00"/>
<line x1="153.88" y1="85.62" x2="153.88" y2="100.56" stroke-width="2.00"/>
<line x1="102.12" y1="24.62" x2="102.12" y2="39.56" stroke-width="2.00"/>
<line x1="102.12" y1="85.62" x2="102.12" y2="100.56" stroke-width="2.00"/>
<line x1="92.88" y1="55.12" x2="92.88" y2="70.06" stroke-width="2.00"/>
<line x1="41.12" y1="55.12" x2="41.12" y2="70.06" stroke-width="2.00"/>
<line x1="128.00" y1="9.06" x2="133.83" y2="11.97" stroke-width="2.00"/>
<line x1="153.26" y1="21.69" x2="194.72" y2="42.42" stroke-width="2.00"/>
<line x1="214.37" y1="52.24" x2="250.00" y2="70.06" stroke-width="2.00"/>
<line x1="6.00" y1="70.06" x2="41.63" y2="52.24" stroke-width="2.00"/>
<line x1="61.28" y1="42.42" x2="102.74" y2="21.69" stroke-width="2.00"/>
<line x1="122.17" y1="11.97" x2="128.00" y2="9.06" stroke-width="2.00"/>
<line x1="6.00" y1="70.06" x2="128.00" y2="131.06" stroke-width="2.00"/>
<line x1="128.00" y1="131.06" x2="250.00" y2="70.06" stroke-width="2.00"/>
<line x1="6.00" y1="99.94" x2="128.00" y2="160.94" stroke-width="2.00"/>
<line x1="128.00" y1="160.94" x2="250.00" y2="99.94" stroke-width="2.00"/>
<line x1="250.00" y1="70.06" x2="250.00" y2="99.94" stroke-width="2.00"/>
<line x1="128.00" y1="131.06" x2="128.00" y2="160.94" stroke-width="2.00"/>
<line x1="6.00" y1="70.06" x2="6.00" y2="99.94" stroke-width="2.00"/>
<path d="M 214.88 70.06 A 25.88 12.94 180.00 1 1 163.12 70.06" stroke-width="2.00"/>
<path d="M 207.30 64.27 A 25.88 12.94 180.00 0 0 170.70 45.97 A 25.88 12.94 180.00 0 0 207.30 64.27" stroke-width="2.00"/>
<path d="M 153.88 39.56 A 25.88 12.94 180.00 1 1 102.12 39.56" stroke-width="2.00"/>
<path d="M 146.30 33.77 A 25.88 12.94 180.00 0 0 109.70 15.47 A 25.88 12.94 180.00 0 0 146.30 33.77" stroke-width="2.00"/>
<path d="M 153.88 100.56 A 25.88 12.94 180.00 1 1 102.12 100.56" stroke-width="2.00"/>
<path d="M 146.30 94.77 A 25.88 12.94 180.00 0 0 109.70 76.47 A 25.88 12.94 180.00 0 0 146.30 94.77" stroke-width="2.00"/>
<path d="M 92.88 70.06 A 25.88 12.94 180.00 0 1 41.12 70.06" stroke-width="2.00"/>
<path d="M 85.30 64.27 A 25.88 12.94 -180.00 0 0 48.70 45.97 A 25.88 12.94 -180.00 0 0 85.30 64.27" stroke-width="2.00"/>
</g>
</svg>